<svg xmlns="http://www.w3.org/2000/svg" version="1.1" xmlns:xlink="http://www.w3.org/1999/xlink" xmlns:svgjs="http://svgjs.dev/svgjs" width="100%" height="100%" viewBox="0 0 1000 600"><rect width="1000" height="600" x="0" y="0" fill="#4e3627"/><g><circle r="166.66666666666666" cx="421.80248514811194" cy="444.0247180680434" fill="white" transform="matrix(0.4899351186832739,0,0,0.4899351186832739,0,82.45669588584548)"/><path d="M402.7052675362521 519.0247292688155L346.80249029698996 519.0247292688155L346.80249029698996 512.4275071101447Q355.1989548625708 512.4275071101447 358.8605709889144 511.5121030785588Q362.4906214589963 510.62826470323455 363.40602549058224 507.88205260847684Q364.2898638659065 505.1674061699808 364.2898638659065 499.70654763672707L364.2898638659065 499.70654763672707L364.2898638659065 388.5638719396959Q364.2898638659065 383.1030134064422 363.40602549058224 380.3883669679461Q362.4906214589963 377.67372052945 358.8605709889144 376.6320538728178Q355.1989548625708 375.6219528724472 346.80249029698996 375.6219528724472L346.80249029698996 375.6219528724472L346.80249029698996 369.0247307137765L402.7052675362521 369.0247307137765L402.7052675362521 375.6219528724472Q394.52976256450233 375.6219528724472 390.77344946937404 376.6320538728178Q387.01713637424575 377.67372052945 386.1332979989214 380.3883669679461Q385.21789396733556 383.1030134064422 385.21789396733556 388.5638719396959L385.21789396733556 388.5638719396959L385.21789396733556 436.51210380103936L458.38708518168323 436.51210380103936L458.38708518168323 388.5638719396959Q458.38708518168323 383.1030134064422 457.47168115009737 380.3883669679461Q456.5878427747731 377.67372052945 452.9262266484295 376.6320538728178Q449.29617617834754 375.6219528724472 440.8997116127667 375.6219528724472L440.8997116127667 375.6219528724472L440.8997116127667 369.0247307137765L496.8024888520289 369.0247307137765L496.8024888520289 375.6219528724472Q488.6269838802791 375.6219528724472 484.87067078515076 376.6320538728178Q481.11435769002253 377.67372052945 480.1989536584366 380.3883669679461Q479.3151152831123 383.1030134064422 479.3151152831123 388.5638719396959L479.3151152831123 388.5638719396959L479.3151152831123 499.70654763672707Q479.3151152831123 505.1674061699808 480.325216283483 507.88205260847684Q481.33531728385356 510.62826470323455 484.99693341019713 511.5121030785588Q488.6269838802791 512.4275071101447 496.8024888520289 512.4275071101447L496.8024888520289 512.4275071101447L496.8024888520289 519.0247292688155L440.8997116127667 519.0247292688155L440.8997116127667 512.4275071101447Q449.29617617834754 512.4275071101447 452.9262266484295 511.5121030785588Q456.5878427747731 510.62826470323455 457.47168115009737 507.88205260847684Q458.38708518168323 505.1674061699808 458.38708518168323 499.70654763672707L458.38708518168323 499.70654763672707L458.38708518168323 445.1610936167129L385.21789396733556 445.1610936167129L385.21789396733556 499.70654763672707Q385.21789396733556 505.1674061699808 386.1332979989214 507.88205260847684Q387.01713637424575 510.62826470323455 390.77344946937404 511.5121030785588Q394.52976256450233 512.4275071101447 402.7052675362521 512.4275071101447L402.7052675362521 512.4275071101447L402.7052675362521 519.0247292688155Z " fill="#4e3627" transform="matrix(0.4899351186832739,0,0,0.4899351186832739,0,82.45669588584548)"/><path d="M726.7115380776952 516.3583323769662L671.8024902916386 516.3583323769662L671.8024902916386 509.87838263823903Q680.0496990500187 509.87838263823903 683.6462261777333 508.97925085631044Q687.2117487612435 508.1111236185862 688.1108805431721 505.41372827280026Q688.9790077808964 502.7473374712187 688.9790077808964 497.38355132385124L688.9790077808964 497.38355132385124L688.9790077808964 388.2165511800314Q688.9790077808964 382.8527650326639 688.1108805431721 380.18637423108237Q687.2117487612435 377.5199834295008 683.6462261777333 376.4968334707545Q680.0496990500187 375.5046880562125 671.8024902916386 375.5046880562125L671.8024902916386 375.5046880562125L671.8024902916386 369.02473831748534L726.7115380776952 369.02473831748534L726.7115380776952 375.5046880562125Q718.6813611287462 375.5046880562125 714.9918203684183 376.4968334707545Q711.3022796080904 377.5199834295008 710.4341523703662 380.18637423108237Q709.5350205884375 382.8527650326639 709.5350205884375 388.2165511800314L709.5350205884375 388.2165511800314L709.5350205884375 435.31245382657L781.4035540543207 435.31245382657L781.4035540543207 388.2165511800314Q781.4035540543207 382.8527650326639 780.504422272392 380.18637423108237Q779.6362950346679 377.5199834295008 776.0397679069532 376.4968334707545Q772.474245323443 375.5046880562125 764.227036565063 375.5046880562125L764.227036565063 375.5046880562125L764.227036565063 369.02473831748534L819.1360843511195 369.02473831748534L819.1360843511195 375.5046880562125Q811.1059074021706 375.5046880562125 807.4163666418427 376.4968334707545Q803.7268258815147 377.5199834295008 802.8276940995861 380.18637423108237Q801.959566861862 382.8527650326639 801.959566861862 388.2165511800314L801.959566861862 388.2165511800314L801.959566861862 497.38355132385124Q801.959566861862 502.7473374712187 802.9517122764039 505.41372827280026Q803.9438576909458 508.1111236185862 807.5403848186604 508.97925085631044Q811.1059074021706 509.87838263823903 819.1360843511195 509.87838263823903L819.1360843511195 509.87838263823903L819.1360843511195 516.3583323769662L764.227036565063 516.3583323769662L764.227036565063 509.87838263823903Q772.474245323443 509.87838263823903 776.0397679069532 508.97925085631044Q779.6362950346679 508.1111236185862 780.504422272392 505.41372827280026Q781.4035540543207 502.7473374712187 781.4035540543207 497.38355132385124L781.4035540543207 497.38355132385124L781.4035540543207 443.8076989385855L709.5350205884375 443.8076989385855L709.5350205884375 497.38355132385124Q709.5350205884375 502.7473374712187 710.4341523703662 505.41372827280026Q711.3022796080904 508.1111236185862 714.9918203684183 508.97925085631044Q718.6813611287462 509.87838263823903 726.7115380776952 509.87838263823903L726.7115380776952 509.87838263823903L726.7115380776952 516.3583323769662ZM889.4543906067809 518.8076913691167L889.4543906067809 518.8076913691167Q864.6817597874364 518.8076913691167 852.7450102687285 504.8556464771204Q840.777256205816 490.9036015851241 840.777256205816 464.1156753924912L840.777256205816 464.1156753924912Q840.777256205816 437.54478100928935 852.7450102687285 423.375704307862Q864.6817597874364 409.20662760643467 889.4543906067809 409.20662760643467L889.4543906067809 409.20662760643467Q914.2270214261255 409.20662760643467 926.1637709448335 423.2826906752487Q938.1315250077458 437.3277491998583 938.1315250077458 463.89864358306016L938.1315250077458 463.89864358306016Q938.1315250077458 490.9036015851241 926.1637709448335 504.8556464771204Q914.2270214261255 518.8076913691167 889.4543906067809 518.8076913691167ZM889.4543906067809 511.6766462020964L889.4543906067809 511.6766462020964Q903.9645172944571 511.6766462020964 910.5374806657976 499.2748285203219Q917.1414485813425 486.9040153827518 917.1414485813425 463.89864358306016L917.1414485813425 463.89864358306016Q917.1414485813425 440.6762399739374 910.3204488563665 428.52245864579845Q903.530453675595 416.33767277345504 889.2373587973499 416.33767277345504L889.2373587973499 416.33767277345504Q874.9442639191047 416.33767277345504 868.2472823709466 428.61547227841174Q861.5503008227884 440.89327178336845 861.5503008227884 464.1156753924912L861.5503008227884 464.1156753924912Q861.5503008227884 487.12104719218286 868.3713005477643 499.3988466971396Q875.1612957285358 511.6766462020964 889.4543906067809 511.6766462020964ZM999.272486178894 519.0247231785477L999.272486178894 519.0247231785477Q984.3282958723557 519.0247231785477 976.9492143517 510.99454622959877Q969.6011373752485 502.9643692806498 969.6011373752485 487.12104719218286L969.6011373752485 487.12104719218286L969.6011373752485 430.84779946113116Q969.6011373752485 425.04994969490156 968.2679419744578 423.03465432161323Q966.9037420294626 421.0503634925293 962.9041558270903 421.0503634925293L962.9041558270903 421.0503634925293L955.3080424970035 421.0503634925293L955.3080424970035 414.57041375380214L982.3130004990674 410.53982300722544L988.5759184283636 410.53982300722544L988.5759184283636 483.5555246086727Q988.5759184283636 490.2525061568309 990.5912138016519 495.83332411362943Q992.5755046307358 501.414142070428 997.1641771729924 504.7626328445071Q1001.7528497152489 508.1111236185862 1009.1009266917004 508.1111236185862L1009.1009266917004 508.1111236185862Q1016.262976402925 508.1111236185862 1021.5957580060881 504.8556464771204Q1026.9595441534557 501.63117387985903 1031.2071667094633 496.48441954192265Q1035.4547892654712 491.36866974819065 1038.8032800395501 486.2219154102542L1038.8032800395501 486.2219154102542L1038.8032800395501 495.58528775999395Q1035.23775745604 501.1661057167925 1029.749953131855 506.6539100409777Q1024.293153351874 512.1107098209584 1016.821058198605 515.5832187718554Q1009.3179585011313 519.0247231785477 999.272486178894 519.0247231785477ZM1069.8388287881908 516.3583323769662L1035.8888528843331 516.3583323769662L1035.8888528843331 500.73204209793033L1035.4547892654712 500.73204209793033L1035.671821074902 430.84779946113116Q1035.671821074902 425.04994969490156 1034.3386256741114 423.03465432161323Q1033.0054302733206 421.0503634925293 1028.9748395267438 421.0503634925293L1028.9748395267438 421.0503634925293L1021.378726196657 421.0503634925293L1021.378726196657 414.57041375380214L1048.383684198721 410.53982300722544L1054.429570318586 410.53982300722544L1054.429570318586 497.81761494271336Q1054.429570318586 502.9643692806498 1055.3287021005146 505.537746449618Q1056.1968293382388 508.1111236185862 1059.4523064797047 508.97925085631044Q1062.6767790769659 509.87838263823903 1069.8388287881908 509.87838263823903L1069.8388287881908 509.87838263823903L1069.8388287881908 516.3583323769662ZM1128.3133991577574 518.8076913691167L1128.3133991577574 518.8076913691167Q1120.9343176371017 518.5906595596857 1116.3766496390497 517.1334459820771Q1111.787977096793 515.6762324044687 1108.656518132145 514.2500233710646Q1105.5560637117014 512.7928097934561 1102.2075729376222 512.7928097934561L1102.2075729376222 512.7928097934561Q1099.7272094012674 512.7928097934561 1098.6110458099076 513.9089733848157Q1097.494882218548 515.0251369761754 1096.3787186271882 517.0404323494638L1096.3787186271882 517.0404323494638L1092.162100615385 517.0404323494638L1089.9297734326656 480.20703383459363L1094.3944277981043 480.20703383459363Q1098.8590821635432 496.26738773249156 1107.664372717603 503.95651469519174Q1116.469663271663 511.6766462020964 1128.0963673483266 511.6766462020964L1128.0963673483266 511.6766462020964Q1137.6767715074973 511.6766462020964 1143.7226576273624 506.99496002722645Q1149.737539203023 502.2822693081522 1149.737539203023 493.3529605772746L1149.737539203023 493.3529605772746Q1149.737539203023 486.4389472196853 1146.1720166195128 482.439361017313Q1142.6064940360025 478.4087702707363 1136.8086442697731 475.61836129233706Q1130.979789959339 472.82795231393777 1124.5308447648163 470.3785933217873L1124.5308447648163 470.3785933217873L1118.9500268080178 468.36329794849894Q1106.4241909494256 463.21654361056255 1099.5101775918363 457.2016620349019Q1092.596164234247 451.18678045924133 1092.596164234247 439.77710819200877L1092.596164234247 439.77710819200877Q1092.596164234247 425.51501785796813 1102.6416365564844 417.4538363648147Q1112.6871088787218 409.4236594158657 1128.9954991302552 409.4236594158657L1128.9954991302552 409.4236594158657Q1135.4444443247778 409.4236594158657 1139.3510168945368 410.44680937461214Q1143.2575894642957 411.4389547891541 1145.830966633264 412.431100203696Q1148.4043438022322 413.45425016244246 1150.8537027943826 413.45425016244246L1150.8537027943826 413.45425016244246Q1153.9851617590307 413.45425016244246 1154.6672617315285 411.87301840801615Q1155.3183571598215 410.32279119779434 1155.5353889692526 409.4236594158657L1155.5353889692526 409.4236594158657L1159.5659797158291 409.4236594158657L1161.116206926051 442.25747172836367L1156.6515525606123 442.25747172836367Q1155.1013253503904 434.87839020770787 1151.876852753129 429.08054044147826Q1148.621375611663 423.2826906752487 1143.2575894642957 419.8101817243519Q1137.9248078611326 416.33767277345504 1129.8636263679794 416.33767277345504L1129.8636263679794 416.33767277345504Q1120.9343176371017 416.33767277345504 1114.919436061441 420.8023271388938Q1108.9045544857804 425.26698150433265 1108.9045544857804 432.4290312155574L1108.9045544857804 432.4290312155574Q1108.9045544857804 437.54478100928935 1111.911995273611 441.4513535790483Q1114.919436061441 445.3579261488073 1119.5081086036976 447.93130331777553Q1124.0657766017498 450.5046804867437 1128.3133991577574 452.05490769696553L1128.3133991577574 452.05490769696553L1134.328280733418 454.07020307025385Q1144.621789409291 457.63572565376404 1151.876852753129 461.7903345771585Q1159.1319160969672 465.9139389563485 1163.0384886667262 471.83580689939583Q1166.9450612364851 477.72667029823873 1166.9450612364851 486.4389472196853L1166.9450612364851 486.4389472196853Q1166.9450612364851 496.26738773249156 1162.0153387079797 503.64646925314736Q1157.1166207236788 510.99454622959877 1148.4043438022322 515.0251369761754Q1139.6920668807857 519.0247231785477 1128.3133991577574 518.8076913691167ZM1235.465103928289 518.8076913691167L1235.465103928289 518.8076913691167Q1211.1265367278068 518.8076913691167 1199.6238508279607 504.6386146676893Q1188.1521694723194 490.46953796626195 1188.1521694723194 465.2318389838509L1188.1521694723194 465.2318389838509Q1188.1521694723194 447.8382896851622 1193.3919374428692 435.31245382657Q1198.6317054134188 422.81762251218214 1209.235259531336 416.12064096402395Q1219.8388136492533 409.4236594158657 1235.6821357377203 409.4236594158657L1235.6821357377203 409.4236594158657Q1249.7581988065342 409.4236594158657 1258.4704757279808 414.22936376755337Q1267.1517481052229 419.035068119241 1271.8644388242974 426.9412268913722Q1276.5461249991672 434.87839020770787 1278.2203703862067 444.2417625574476Q1279.8946157732462 453.6361394513918 1279.8946157732462 462.9995118011315L1279.8946157732462 462.9995118011315L1279.8946157732462 465.01480717441984L1204.894623342715 465.01480717441984L1205.111655152146 457.8837620073995L1259.121571156274 457.8837620073995Q1259.121571156274 444.4897989110831 1257.0132621503722 435.21944019395664Q1254.8739486002662 425.9490814768302 1249.8512124391475 421.1433771251426Q1244.8284762780288 416.33767277345504 1235.8991675471511 416.33767277345504L1235.8991675471511 416.33767277345504Q1226.5357951974115 416.33767277345504 1220.6139272543642 421.4844271113914Q1214.6920593113168 426.6311814493278 1211.9016503329176 436.5526355947474Q1209.1112413545184 446.474089740167 1208.8942095450875 460.98421642784314L1208.8942095450875 460.98421642784314Q1208.8942095450875 470.59562513121836 1210.1343913132646 479.30790205266493Q1211.3435685372378 488.0201789741115 1214.8160774881346 494.9341923317008Q1218.2885864390314 501.84820568929007 1224.644518000941 505.8787964358668Q1231.0004495628505 509.87838263823903 1241.2629536945187 509.87838263823903L1241.2629536945187 509.87838263823903Q1250.874362397894 509.87838263823903 1257.1062757829857 506.43687823154664Q1263.3691937122817 502.9643692806498 1267.1517481052229 497.38355132385124Q1270.9653070423687 491.8027333670527 1272.980602415657 486.0048836008232L1272.980602415657 486.0048836008232L1278.9954839913175 488.67127440240466Q1276.5461249991672 496.26738773249156 1271.7404206474794 503.18140109008084Q1266.934716295792 510.09541444767007 1258.346457551163 514.4670551804957Q1249.7581988065342 518.8076913691167 1235.465103928289 518.8076913691167ZM1356.2278036045682 516.3583323769662L1301.3187558185116 516.3583323769662L1301.3187558185116 509.87838263823903Q1309.5659645768917 509.87838263823903 1313.1624917046063 508.97925085631044Q1316.7280142881166 508.1111236185862 1317.6271460700452 505.41372827280026Q1318.4952733077694 502.7473374712187 1318.4952733077694 497.38355132385124L1318.4952733077694 497.38355132385124L1318.4952733077694 388.2165511800314Q1318.4952733077694 382.8527650326639 1317.6271460700452 380.18637423108237Q1316.7280142881166 377.5199834295008 1313.1624917046063 376.4968334707545Q1309.5659645768917 375.5046880562125 1301.3187558185116 375.5046880562125L1301.3187558185116 375.5046880562125L1301.3187558185116 369.02473831748534L1356.2278036045682 369.02473831748534L1356.2278036045682 375.5046880562125Q1348.1976266556192 375.5046880562125 1344.5080858952913 376.4968334707545Q1340.8185451349634 377.5199834295008 1339.950417897239 380.18637423108237Q1339.0512861153104 382.8527650326639 1339.0512861153104 388.2165511800314L1339.0512861153104 388.2165511800314L1339.0512861153104 435.31245382657L1410.9198195811937 435.31245382657L1410.9198195811937 388.2165511800314Q1410.9198195811937 382.8527650326639 1410.0206877992648 380.18637423108237Q1409.152560561541 377.5199834295008 1405.5560334338263 376.4968334707545Q1401.990510850316 375.5046880562125 1393.743302091936 375.5046880562125L1393.743302091936 375.5046880562125L1393.743302091936 369.02473831748534L1448.6523498779927 369.02473831748534L1448.6523498779927 375.5046880562125Q1440.6221729290435 375.5046880562125 1436.9326321687156 376.4968334707545Q1433.2430914083877 377.5199834295008 1432.343959626459 380.18637423108237Q1431.475832388735 382.8527650326639 1431.475832388735 388.2165511800314L1431.475832388735 388.2165511800314L1431.475832388735 497.38355132385124Q1431.475832388735 502.7473374712187 1432.4679778032769 505.41372827280026Q1433.4601232178188 508.1111236185862 1437.0566503455334 508.97925085631044Q1440.6221729290435 509.87838263823903 1448.6523498779927 509.87838263823903L1448.6523498779927 509.87838263823903L1448.6523498779927 516.3583323769662L1393.743302091936 516.3583323769662L1393.743302091936 509.87838263823903Q1401.990510850316 509.87838263823903 1405.5560334338263 508.97925085631044Q1409.152560561541 508.1111236185862 1410.0206877992648 505.41372827280026Q1410.9198195811937 502.7473374712187 1410.9198195811937 497.38355132385124L1410.9198195811937 497.38355132385124L1410.9198195811937 443.8076989385855L1339.0512861153104 443.8076989385855L1339.0512861153104 497.38355132385124Q1339.0512861153104 502.7473374712187 1339.950417897239 505.41372827280026Q1340.8185451349634 508.1111236185862 1344.5080858952913 508.97925085631044Q1348.1976266556192 509.87838263823903 1356.2278036045682 509.87838263823903L1356.2278036045682 509.87838263823903L1356.2278036045682 516.3583323769662ZM1510.258379212207 519.0247231785477L1510.258379212207 519.0247231785477Q1495.314188905669 519.0247231785477 1487.9351073850132 510.99454622959877Q1480.5870304085618 502.9643692806498 1480.5870304085618 487.12104719218286L1480.5870304085618 487.12104719218286L1480.5870304085618 430.84779946113116Q1480.5870304085618 425.04994969490156 1479.2228304635667 423.03465432161323Q1477.8896350627758 421.0503634925293 1473.8900488604038 421.0503634925293L1473.8900488604038 421.0503634925293L1466.2939355303167 421.0503634925293L1466.2939355303167 414.57041375380214L1493.2988935323808 410.53982300722544L1499.5618114616766 410.53982300722544L1499.5618114616766 483.5555246086727Q1499.5618114616766 490.2525061568309 1501.546102290761 495.83332411362943Q1503.561397664049 501.414142070428 1508.1500702063056 504.7626328445071Q1512.7077382043578 508.1111236185862 1520.0868197250136 508.1111236185862L1520.0868197250136 508.1111236185862Q1527.2178648920337 508.1111236185862 1532.5816510394015 504.8556464771204Q1537.945437186769 501.63117387985903 1542.1930597427765 496.48441954192265Q1546.4406822987842 491.36866974819065 1549.7891730728636 486.2219154102542L1549.7891730728636 486.2219154102542L1549.7891730728636 495.58528775999395Q1546.192645945149 501.1661057167925 1540.7358461651681 506.6539100409777Q1535.2790463851873 512.1107098209584 1527.775946687714 515.5832187718554Q1520.3038515344447 519.0247231785477 1510.258379212207 519.0247231785477ZM1580.7937172772997 516.3583323769662L1546.8747459176464 516.3583323769662L1546.8747459176464 500.73204209793033L1546.4406822987842 500.73204209793033L1546.6577141082155 430.84779946113116Q1546.6577141082155 425.04994969490156 1545.3245187074247 423.03465432161323Q1543.9603187624293 421.0503634925293 1539.960732560057 421.0503634925293L1539.960732560057 421.0503634925293L1532.3646192299705 421.0503634925293L1532.3646192299705 414.57041375380214L1559.3695772320343 410.53982300722544L1565.4154633518995 410.53982300722544L1565.4154633518995 497.81761494271336Q1565.4154633518995 502.9643692806498 1566.2835905896238 505.537746449618Q1567.182722371552 508.1111236185862 1570.438199513018 508.97925085631044Q1573.6626721102793 509.87838263823903 1580.7937172772997 509.87838263823903L1580.7937172772997 509.87838263823903L1580.7937172772997 516.3583323769662ZM1713.4001528396736 516.3583323769662L1664.5059866292775 516.3583323769662L1664.5059866292775 509.87838263823903Q1671.2029681774359 509.87838263823903 1674.3344271420835 509.2272872099459Q1677.4658861067317 508.54518723744826 1678.3650178886605 506.0958282452978Q1679.2641496705894 503.64646925314736 1679.2641496705894 498.2826831057799L1679.2641496705894 498.2826831057799L1679.2641496705894 444.02473074801657Q1679.2641496705894 437.3277491998583 1677.2488542973008 431.96396305249084Q1675.2335589240124 426.6311814493278 1670.644886381756 423.375704307862Q1666.0872183837039 420.15123171060065 1658.4911050536168 420.15123171060065L1658.4911050536168 420.15123171060065Q1648.2286009219486 420.15123171060065 1641.7486511832212 425.73204966739917Q1635.2687014444941 431.3128676241977 1630.1529516507621 438.6609446006491L1630.1529516507621 438.6609446006491L1630.1529516507621 429.08054044147826Q1635.4857332539252 422.38355889332007 1641.0665512107237 418.01191816049453Q1646.6473691675221 413.6712819718735 1653.2513370830673 411.5629729659718Q1659.8243004544076 409.4236594158657 1667.854477403357 409.4236594158657L1667.854477403357 409.4236594158657Q1683.0467040635303 409.4236594158657 1690.5187992167996 417.4538363648147Q1697.9908943700686 425.51501785796813 1697.9908943700686 441.57537175586606L1697.9908943700686 441.57537175586606L1697.9908943700686 497.81761494271336Q1697.9908943700686 502.9643692806498 1698.8900261519973 505.537746449618Q1699.789157933926 508.1111236185862 1703.0136305311873 508.97925085631044Q1706.269107672653 509.87838263823903 1713.4001528396736 509.87838263823903L1713.4001528396736 509.87838263823903L1713.4001528396736 516.3583323769662ZM1646.6473691675221 516.3583323769662L1597.7842075013307 516.3583323769662L1597.7842075013307 509.87838263823903Q1605.1322844777822 509.87838263823903 1608.2637434424303 508.97925085631044Q1611.3952024070784 508.1111236185862 1612.170316012189 505.537746449618Q1612.9454296173 502.9643692806498 1612.9454296173 497.81761494271336L1612.9454296173 497.81761494271336L1612.9454296173 431.3128676241977Q1612.9454296173 425.51501785796813 1611.6122342165095 423.59273611729304Q1610.2790388157186 421.70145892082246 1606.465479878573 421.70145892082246L1606.465479878573 421.70145892082246L1598.9003710926906 421.70145892082246L1598.9003710926906 415.00447737266427L1625.223229122257 410.53982300722544L1631.2691152421219 410.53982300722544L1631.2691152421219 427.06524506818994L1631.920210670415 427.06524506818994L1631.920210670415 498.2826831057799Q1631.920210670415 503.64646925314736 1632.8193424523436 506.0958282452978Q1633.7184742342724 508.54518723744826 1636.9429468315336 509.2272872099459Q1640.1984239729995 509.87838263823903 1646.6473691675221 509.87838263823903L1646.6473691675221 509.87838263823903L1646.6473691675221 516.3583323769662ZM1761.612219077572 518.8076913691167L1761.612219077572 518.8076913691167Q1756.4964692838396 518.8076913691167 1751.3497149459033 516.916414172646Q1746.2339651521713 515.0251369761754 1742.9784880107056 509.87838263823903Q1739.7540154134442 504.7626328445071 1739.7540154134442 495.3682559505629L1739.7540154134442 495.3682559505629L1739.7540154134442 419.035068119241L1723.445625161911 419.035068119241L1723.445625161911 412.3380865710827Q1731.723838464495 411.4389547891541 1737.5216882307247 406.8502822468975Q1743.3195379969545 402.2926142488454 1746.8850605804648 394.8205190955763Q1750.4505831639747 387.31741939810274 1752.031814918401 377.95404704836295L1752.031814918401 377.95404704836295L1758.5117646571282 377.95404704836295L1758.5117646571282 411.87301840801615L1783.2843954764724 411.87301840801615L1783.2843954764724 419.035068119241L1758.5117646571282 419.035068119241L1758.5117646571282 492.0197651764838Q1758.5117646571282 501.63117387985903 1761.5192054449583 505.32071464018696Q1764.5266462327888 508.97925085631044 1769.8904323801564 508.97925085631044L1769.8904323801564 508.97925085631044Q1773.6729867730976 508.97925085631044 1777.486545710243 507.0879736598398Q1781.2691001031842 505.19669646336916 1783.5014272859037 503.64646925314736L1783.5014272859037 503.64646925314736L1785.950786278054 508.97925085631044Q1783.2843954764724 510.99454622959877 1779.8118865255758 513.3508915891359Q1776.3703821188835 515.6762324044687 1771.9987413860579 517.2574641588949Q1767.658105197437 518.8076913691167 1761.612219077572 518.8076913691167Z " fill="white" transform="matrix(0.4899351186832739,0,0,0.4899351186832739,0,82.45669588584548)"/></g></svg>